<svg xmlns="http://www.w3.org/2000/svg" width="76.513" height="60.446" viewBox="0 0 76.513 60.446"><defs><style>.a{fill:#fff;}</style></defs><g transform="translate(0 0)"><path class="a" d="M0,200.24H2.623v3.84l3.256-3.84H8.992l-3.583,4.07,3.7,5.394H5.969l-2.386-3.515-.961,1.062V209.7H0Z" transform="translate(0 -149.424)"/><path class="a" d="M53.74,198h2.679v1.894H53.74Zm.054,2.556h2.57v7.315H53.787Z" transform="translate(-44.019 -147.589)"/><path class="a" d="M73.1,217.844l.96-1.556a4.75,4.75,0,0,0,2.514.839c.447,0,.649-.136.649-.392v-.027c0-.284-.405-.405-1.176-.622-1.447-.378-2.6-.865-2.6-2.339v-.027c0-1.556,1.243-2.42,2.934-2.42a5.727,5.727,0,0,1,3.015.85l-.879,1.628a4.945,4.945,0,0,0-2.171-.677c-.393,0-.6.148-.6.351v.027c0,.284.42.42,1.19.649,1.447.405,2.6.9,2.6,2.326v.027c0,1.608-1.2,2.447-2.988,2.447A5.9,5.9,0,0,1,73.1,217.844Z" transform="translate(-59.877 -158.484)"/><path class="a" d="M112.57,216.848v-.027c0-1.516,1.15-2.3,2.867-2.3a5.626,5.626,0,0,1,1.758.284v-.128c0-.758-.474-1.19-1.462-1.19a5.141,5.141,0,0,0-2.013.405l-.528-1.809a7.345,7.345,0,0,1,2.961-.568,3.757,3.757,0,0,1,2.786.894,3.059,3.059,0,0,1,.783,2.324v4.206h-2.541v-.756a2.758,2.758,0,0,1-2.149.919A2.221,2.221,0,0,1,112.57,216.848Zm4.652-.555v-.349a2.688,2.688,0,0,0-1-.181c-.743,0-1.176.362-1.176.9v.027a.8.8,0,0,0,.9.8,1.171,1.171,0,0,0,1.273-1.2Z" transform="translate(-92.208 -158.659)"/><path class="a" d="M159.36,211.383h2.57v1.027a2.712,2.712,0,0,1,2.191-1.19,2.4,2.4,0,0,1,2.487,2.692V218.7H164.04v-3.961c0-.8-.42-1.23-1.027-1.23a1.092,1.092,0,0,0-1.085,1.23V218.7H159.36Z" transform="translate(-130.534 -158.418)"/><path class="a" d="M211.714,199.79h4.853a3.488,3.488,0,0,1,2.583.852,2.077,2.077,0,0,1,.608,1.527v.027a2.189,2.189,0,0,1-1.46,2.109,2.3,2.3,0,0,1,1.879,2.314v.027c0,1.628-1.326,2.608-3.583,2.608H211.71Zm4.209,3.771c.8,0,1.244-.27,1.244-.825v-.027c0-.514-.405-.81-1.19-.81h-1.7v1.662Zm.38,3.583c.8,0,1.266-.311,1.266-.865v-.027c0-.514-.405-.852-1.284-.852h-2.017v1.744Z" transform="translate(-173.415 -149.056)"/><path class="a" d="M262.33,216.411v-.027c0-1.514,1.15-2.3,2.867-2.3a5.623,5.623,0,0,1,1.758.284v-.121c0-.758-.474-1.19-1.462-1.19a5.14,5.14,0,0,0-2.013.405l-.528-1.809a7.377,7.377,0,0,1,2.961-.568,3.757,3.757,0,0,1,2.786.894,3.061,3.061,0,0,1,.783,2.326v4.2h-2.541v-.756a2.758,2.758,0,0,1-2.149.913A2.22,2.22,0,0,1,262.33,216.411Zm4.652-.555v-.338a2.726,2.726,0,0,0-1-.181c-.743,0-1.176.362-1.176.9v.025a.8.8,0,0,0,.9.8A1.183,1.183,0,0,0,266.982,215.856Z" transform="translate(-214.878 -158.307)"/><path class="a" d="M307.7,217.3l3.381-3.576h-3.256V211.67h6.666v1.688l-3.393,3.583h3.393v2.04H307.7Z" transform="translate(-252.042 -158.787)"/><path class="a" d="M349.19,216.4v-.027c0-1.514,1.149-2.3,2.867-2.3a5.607,5.607,0,0,1,1.756.284v-.121c0-.758-.472-1.19-1.46-1.19a5.158,5.158,0,0,0-2.015.405l-.526-1.809a7.377,7.377,0,0,1,2.961-.572,3.757,3.757,0,0,1,2.786.894,3.061,3.061,0,0,1,.783,2.326v4.2H353.8v-.756a2.764,2.764,0,0,1-2.151.917A2.22,2.22,0,0,1,349.19,216.4Zm4.651-.555V215.5a2.713,2.713,0,0,0-1-.181c-.743,0-1.176.362-1.176.9v.025a.8.8,0,0,0,.9.8A1.181,1.181,0,0,0,353.841,215.84Z" transform="translate(-286.027 -158.291)"/><path class="a" d="M396,211.107h2.57v1.474a2.237,2.237,0,0,1,2.312-1.6V213.7h-.217c-1.339,0-2.095.771-2.095,2.462v2.27H396Z" transform="translate(-324.369 -158.224)"/><g transform="translate(2.506)"><path class="a" d="M161.275,11.138c.123-1.2.382-6.653-4.505-9.485A11.5,11.5,0,0,0,148.01.308a.558.558,0,0,1,.234.047c.968.22,4.809,1.331,9.387,5.741C157.632,6.117,160.99,9.012,161.275,11.138Z" transform="translate(-122.849 0.029)"/><path class="a" d="M149.729,2.85c.279,1.518,2.254,11.739,10.9,9.861a7.274,7.274,0,0,0-2.394-5.6c-4.578-4.4-8.419-5.51-9.387-5.73C149.112,1.483,149.522,1.815,149.729,2.85Z" transform="translate(-123.456 -0.987)"/><path class="a" d="M213.408,14.534s-4.21-3.166-8.913-1.244A6.349,6.349,0,0,0,200.4,19.82a8.309,8.309,0,0,1,2.893-3.228C207.006,13.359,213.408,14.534,213.408,14.534Z" transform="translate(-160.608 -9.128)"/><path class="a" d="M204.14,24.64c4.941,2.279,8.006-1.339,8.977-3.186a5.889,5.889,0,0,1,3-2.642s-6.416-1.174-10.113,2.059A5.133,5.133,0,0,0,204.14,24.64Z" transform="translate(-163.322 -13.407)"/><rect class="a" width="42.715" height="5.744" rx="2.872" transform="translate(17.633 16.132)"/><rect class="a" width="5.744" height="18.825" rx="2.872" transform="translate(11.312 5.408) rotate(-23.02)"/><rect class="a" width="34.494" height="5.744" rx="2.872" transform="translate(21.731 26.044)"/><rect class="a" width="27.459" height="5.744" rx="2.872" transform="translate(25.395 36.36)"/><rect class="a" width="17.636" height="5.744" rx="2.872" transform="translate(0 3.623)"/><path class="a" d="M281.532,52.133l-.558-.734h-.522v.734h-.212V50.25h.812a.893.893,0,0,1,.279.042.631.631,0,0,1,.215.114.5.5,0,0,1,.137.179.521.521,0,0,1,.05.232.577.577,0,0,1-.039.212.524.524,0,0,1-.106.162.626.626,0,0,1-.162.114.743.743,0,0,1-.206.064l.575.764Zm-.145-1.593a.583.583,0,0,0-.357-.1h-.577v.77h.583a.735.735,0,0,0,.2-.028.468.468,0,0,0,.153-.078.332.332,0,0,0,.1-.123.348.348,0,0,0,.036-.165.335.335,0,0,0-.134-.273Z" transform="translate(-218.192 -36.224)"/><path class="a" d="M277.485,50.454a1.992,1.992,0,1,1,1.989-1.989,1.992,1.992,0,0,1-1.989,1.989Zm0-3.825a.761.761,0,1,0,0-.011Z" transform="translate(-214.767 -33.498)"/></g></g></svg>